<svg xmlns="http://www.w3.org/2000/svg" width="1180" height="610" viewBox="0 0 1180 610" role="img" aria-labelledby="title desc">
<title id="title">Seifeddine Ben Yaala - live profile</title>
<desc id="desc">Animated terminal profile card with a dot-matrix panel and key facts.</desc>
<style>
.mono{font-family:ui-monospace,SFMono-Regular,'JetBrains Mono',Menlo,Consolas,monospace;}
.sweep{opacity:0;animation:in .5s ease-out forwards;}
@keyframes in{from{opacity:0}to{opacity:1}}
@media (prefers-reduced-motion: reduce){.sweep{animation:none;opacity:1}}
</style>
<defs><pattern id="grid" width="7" height="7" patternUnits="userSpaceOnUse" x="49" y="136"><circle cx="3.5" cy="3.5" r="1" fill="#1A2740"/></pattern>
<filter id="shadow" x="-20%" y="-20%" width="140%" height="150%"><feDropShadow dx="0" dy="12" stdDeviation="16" flood-color="#02050B" flood-opacity=".28"/></filter>
</defs>
<rect width="1180" height="610" rx="18" fill="#0A101F"/>
<rect x="13" y="13" width="1154" height="584" rx="13" fill="#0D1628" stroke="#25344C" filter="url(#shadow)"/>
<path d="M13 62H1167" stroke="#25344C"/>
<circle cx="38" cy="38" r="6" fill="#FF5F57"/><circle cx="59" cy="38" r="6" fill="#FEBC2E"/><circle cx="80" cy="38" r="6" fill="#28C840"/>
<text x="590.0" y="43" text-anchor="middle" fill="#8291A8" class="mono" font-size="13" letter-spacing=".4">seifeddine2003@github: ~/profile.sh --live</text>

<rect x="35" y="88" width="418" height="472" rx="6" fill="#101B30" stroke="#25344C"/>
<path d="M35 124H453" stroke="#25344C"/>
<text x="49" y="111" fill="#8291A8" class="mono" font-size="12">render/led_matrix.svg</text>
<text x="439" y="111" text-anchor="end" fill="#AA9BEF" class="mono" font-size="12">512 px</text>
<rect x="49" y="136" width="390" height="390" fill="url(#grid)"/>
<g class="sweep" style="animation-delay:0.49s"><circle cx="143" cy="181" r="2.6" fill="#AA9BEF" fill-opacity="0.93"/><circle cx="206" cy="181" r="2.6" fill="#AA9BEF" fill-opacity="0.89"/><circle cx="143" cy="188" r="2.6" fill="#AA9BEF" fill-opacity="1.00"/><circle cx="150" cy="195" r="2.6" fill="#AA9BEF" fill-opacity="1.00"/><circle cx="129" cy="202" r="2.6" fill="#AA9BEF" fill-opacity="1.00"/></g><g class="sweep" style="animation-delay:0.61s"><circle cx="178" cy="181" r="2.6" fill="#AA9BEF" fill-opacity="1.00"/><circle cx="192" cy="181" r="2.6" fill="#AA9BEF" fill-opacity="1.00"/><circle cx="283" cy="181" r="2.6" fill="#AA9BEF" fill-opacity="1.00"/><circle cx="311" cy="181" r="2.6" fill="#AA9BEF" fill-opacity="1.00"/><circle cx="157" cy="188" r="2.6" fill="#AA9BEF" fill-opacity="1.00"/><circle cx="185" cy="188" r="2.6" fill="#AA9BEF" fill-opacity="1.00"/><circle cx="178" cy="195" r="2.6" fill="#AA9BEF" fill-opacity="1.00"/><circle cx="213" cy="195" r="2.6" fill="#AA9BEF" fill-opacity="1.00"/><circle cx="269" cy="195" r="2.6" fill="#AA9BEF" fill-opacity="1.00"/><circle cx="136" cy="202" r="2.6" fill="#AA9BEF" fill-opacity="1.00"/><circle cx="150" cy="202" r="2.6" fill="#AA9BEF" fill-opacity="1.00"/><circle cx="122" cy="209" r="2.6" fill="#AA9BEF" fill-opacity="1.00"/><circle cx="129" cy="209" r="2.6" fill="#AA9BEF" fill-opacity="1.00"/><circle cx="150" cy="209" r="1.9" fill="#AA9BEF" fill-opacity="0.78"/><circle cx="129" cy="216" r="2.6" fill="#AA9BEF" fill-opacity="1.00"/><circle cx="122" cy="223" r="2.6" fill="#AA9BEF" fill-opacity="1.00"/></g><g class="sweep" style="animation-delay:0.73s"><circle cx="150" cy="181" r="2.6" fill="#AA9BEF" fill-opacity="1.00"/><circle cx="157" cy="181" r="2.6" fill="#AA9BEF" fill-opacity="1.00"/><circle cx="164" cy="181" r="2.6" fill="#AA9BEF" fill-opacity="1.00"/><circle cx="171" cy="181" r="2.6" fill="#AA9BEF" fill-opacity="1.00"/><circle cx="185" cy="181" r="2.6" fill="#AA9BEF" fill-opacity="1.00"/><circle cx="199" cy="181" r="2.6" fill="#AA9BEF" fill-opacity="0.99"/><circle cx="213" cy="181" r="1.9" fill="#AA9BEF" fill-opacity="0.75"/><circle cx="262" cy="181" r="2.6" fill="#AA9BEF" fill-opacity="1.00"/><circle cx="297" cy="181" r="2.6" fill="#AA9BEF" fill-opacity="1.00"/><circle cx="304" cy="181" r="2.6" fill="#AA9BEF" fill-opacity="1.00"/><circle cx="332" cy="181" r="2.6" fill="#AA9BEF" fill-opacity="0.95"/><circle cx="129" cy="188" r="2.6" fill="#AA9BEF" fill-opacity="0.84"/><circle cx="136" cy="188" r="2.6" fill="#AA9BEF" fill-opacity="1.00"/><circle cx="164" cy="188" r="2.6" fill="#AA9BEF" fill-opacity="1.00"/><circle cx="178" cy="188" r="2.6" fill="#AA9BEF" fill-opacity="1.00"/><circle cx="192" cy="188" r="2.6" fill="#AA9BEF" fill-opacity="1.00"/><circle cx="290" cy="188" r="2.6" fill="#AA9BEF" fill-opacity="1.00"/><circle cx="304" cy="188" r="2.6" fill="#AA9BEF" fill-opacity="1.00"/><circle cx="122" cy="195" r="1.9" fill="#AA9BEF" fill-opacity="0.75"/><circle cx="143" cy="195" r="2.6" fill="#AA9BEF" fill-opacity="1.00"/><circle cx="164" cy="195" r="2.6" fill="#AA9BEF" fill-opacity="1.00"/><circle cx="185" cy="195" r="2.6" fill="#AA9BEF" fill-opacity="1.00"/><circle cx="192" cy="195" r="2.6" fill="#AA9BEF" fill-opacity="1.00"/><circle cx="206" cy="195" r="2.6" fill="#AA9BEF" fill-opacity="1.00"/><circle cx="262" cy="195" r="2.6" fill="#AA9BEF" fill-opacity="1.00"/><circle cx="276" cy="195" r="2.6" fill="#AA9BEF" fill-opacity="1.00"/><circle cx="283" cy="195" r="2.6" fill="#AA9BEF" fill-opacity="1.00"/><circle cx="143" cy="202" r="2.6" fill="#AA9BEF" fill-opacity="1.00"/><circle cx="164" cy="202" r="1.9" fill="#AA9BEF" fill-opacity="0.70"/><circle cx="199" cy="202" r="2.6" fill="#AA9BEF" fill-opacity="0.98"/><circle cx="206" cy="202" r="2.6" fill="#AA9BEF" fill-opacity="1.00"/><circle cx="213" cy="202" r="2.6" fill="#AA9BEF" fill-opacity="1.00"/><circle cx="304" cy="202" r="1.9" fill="#AA9BEF" fill-opacity="0.73"/><circle cx="332" cy="202" r="2.6" fill="#AA9BEF" fill-opacity="1.00"/><circle cx="143" cy="209" r="2.6" fill="#AA9BEF" fill-opacity="1.00"/><circle cx="213" cy="209" r="1.9" fill="#AA9BEF" fill-opacity="0.79"/><circle cx="262" cy="209" r="2.6" fill="#AA9BEF" fill-opacity="1.00"/><circle cx="283" cy="209" r="2.6" fill="#AA9BEF" fill-opacity="1.00"/><circle cx="143" cy="216" r="2.6" fill="#AA9BEF" fill-opacity="1.00"/><circle cx="269" cy="216" r="2.6" fill="#AA9BEF" fill-opacity="1.00"/><circle cx="276" cy="216" r="2.6" fill="#AA9BEF" fill-opacity="1.00"/><circle cx="136" cy="223" r="2.6" fill="#AA9BEF" fill-opacity="1.00"/><circle cx="143" cy="223" r="2.6" fill="#AA9BEF" fill-opacity="1.00"/><circle cx="129" cy="230" r="2.6" fill="#AA9BEF" fill-opacity="1.00"/><circle cx="143" cy="230" r="2.6" fill="#AA9BEF" fill-opacity="1.00"/><circle cx="136" cy="237" r="2.6" fill="#AA9BEF" fill-opacity="1.00"/><circle cx="150" cy="237" r="2.6" fill="#AA9BEF" fill-opacity="1.00"/><circle cx="157" cy="237" r="2.6" fill="#AA9BEF" fill-opacity="1.00"/><circle cx="164" cy="237" r="2.6" fill="#AA9BEF" fill-opacity="1.00"/><circle cx="178" cy="237" r="2.6" fill="#AA9BEF" fill-opacity="1.00"/><circle cx="185" cy="237" r="2.6" fill="#AA9BEF" fill-opacity="1.00"/><circle cx="199" cy="237" r="1.9" fill="#AA9BEF" fill-opacity="0.77"/><circle cx="129" cy="244" r="2.6" fill="#AA9BEF" fill-opacity="1.00"/><circle cx="157" cy="244" r="2.6" fill="#AA9BEF" fill-opacity="1.00"/><circle cx="171" cy="244" r="2.6" fill="#AA9BEF" fill-opacity="1.00"/><circle cx="178" cy="244" r="2.6" fill="#AA9BEF" fill-opacity="1.00"/><circle cx="213" cy="244" r="1.9" fill="#AA9BEF" fill-opacity="0.73"/><circle cx="136" cy="251" r="2.6" fill="#AA9BEF" fill-opacity="0.92"/><circle cx="143" cy="251" r="2.6" fill="#AA9BEF" fill-opacity="1.00"/><circle cx="157" cy="258" r="2.6" fill="#AA9BEF" fill-opacity="0.93"/><circle cx="164" cy="258" r="2.6" fill="#AA9BEF" fill-opacity="1.00"/><circle cx="129" cy="286" r="1.9" fill="#AA9BEF" fill-opacity="0.78"/></g><g class="sweep" style="animation-delay:0.85s"><circle cx="269" cy="181" r="2.6" fill="#AA9BEF" fill-opacity="1.00"/><circle cx="276" cy="181" r="2.6" fill="#AA9BEF" fill-opacity="1.00"/><circle cx="290" cy="181" r="2.6" fill="#AA9BEF" fill-opacity="1.00"/><circle cx="318" cy="181" r="2.6" fill="#AA9BEF" fill-opacity="1.00"/><circle cx="325" cy="181" r="2.6" fill="#AA9BEF" fill-opacity="1.00"/><circle cx="339" cy="181" r="2.6" fill="#AA9BEF" fill-opacity="0.81"/><circle cx="150" cy="188" r="2.6" fill="#AA9BEF" fill-opacity="1.00"/><circle cx="171" cy="188" r="2.6" fill="#AA9BEF" fill-opacity="1.00"/><circle cx="199" cy="188" r="2.6" fill="#AA9BEF" fill-opacity="1.00"/><circle cx="206" cy="188" r="2.6" fill="#AA9BEF" fill-opacity="1.00"/><circle cx="262" cy="188" r="2.6" fill="#AA9BEF" fill-opacity="1.00"/><circle cx="276" cy="188" r="2.6" fill="#AA9BEF" fill-opacity="1.00"/><circle cx="283" cy="188" r="2.6" fill="#AA9BEF" fill-opacity="1.00"/><circle cx="297" cy="188" r="2.6" fill="#AA9BEF" fill-opacity="1.00"/><circle cx="325" cy="188" r="2.6" fill="#AA9BEF" fill-opacity="1.00"/><circle cx="339" cy="188" r="2.6" fill="#AA9BEF" fill-opacity="1.00"/><circle cx="346" cy="188" r="2.6" fill="#AA9BEF" fill-opacity="1.00"/><circle cx="353" cy="188" r="2.6" fill="#AA9BEF" fill-opacity="0.88"/><circle cx="129" cy="195" r="2.6" fill="#AA9BEF" fill-opacity="1.00"/><circle cx="136" cy="195" r="2.6" fill="#AA9BEF" fill-opacity="1.00"/><circle cx="157" cy="195" r="2.6" fill="#AA9BEF" fill-opacity="1.00"/><circle cx="171" cy="195" r="2.6" fill="#AA9BEF" fill-opacity="1.00"/><circle cx="199" cy="195" r="2.6" fill="#AA9BEF" fill-opacity="1.00"/><circle cx="318" cy="195" r="2.6" fill="#AA9BEF" fill-opacity="1.00"/><circle cx="353" cy="195" r="2.6" fill="#AA9BEF" fill-opacity="1.00"/><circle cx="122" cy="202" r="2.6" fill="#AA9BEF" fill-opacity="1.00"/><circle cx="157" cy="202" r="2.6" fill="#AA9BEF" fill-opacity="0.87"/><circle cx="185" cy="202" r="1.9" fill="#AA9BEF" fill-opacity="0.72"/><circle cx="192" cy="202" r="2.6" fill="#AA9BEF" fill-opacity="0.83"/><circle cx="262" cy="202" r="2.6" fill="#AA9BEF" fill-opacity="1.00"/><circle cx="283" cy="202" r="2.6" fill="#AA9BEF" fill-opacity="1.00"/><circle cx="290" cy="202" r="2.6" fill="#AA9BEF" fill-opacity="1.00"/><circle cx="297" cy="202" r="1.9" fill="#AA9BEF" fill-opacity="0.73"/><circle cx="136" cy="209" r="2.6" fill="#AA9BEF" fill-opacity="1.00"/><circle cx="276" cy="209" r="2.6" fill="#AA9BEF" fill-opacity="1.00"/><circle cx="353" cy="209" r="2.6" fill="#AA9BEF" fill-opacity="1.00"/><circle cx="360" cy="209" r="2.6" fill="#AA9BEF" fill-opacity="1.00"/><circle cx="122" cy="216" r="2.6" fill="#AA9BEF" fill-opacity="1.00"/><circle cx="136" cy="216" r="2.6" fill="#AA9BEF" fill-opacity="1.00"/><circle cx="262" cy="216" r="2.6" fill="#AA9BEF" fill-opacity="1.00"/><circle cx="290" cy="216" r="2.6" fill="#AA9BEF" fill-opacity="1.00"/><circle cx="332" cy="216" r="2.6" fill="#AA9BEF" fill-opacity="1.00"/><circle cx="346" cy="216" r="2.6" fill="#AA9BEF" fill-opacity="1.00"/><circle cx="129" cy="223" r="2.6" fill="#AA9BEF" fill-opacity="1.00"/><circle cx="150" cy="223" r="2.6" fill="#AA9BEF" fill-opacity="0.90"/><circle cx="269" cy="223" r="2.6" fill="#AA9BEF" fill-opacity="1.00"/><circle cx="276" cy="223" r="2.6" fill="#AA9BEF" fill-opacity="1.00"/><circle cx="290" cy="223" r="2.6" fill="#AA9BEF" fill-opacity="1.00"/><circle cx="122" cy="230" r="2.6" fill="#AA9BEF" fill-opacity="1.00"/><circle cx="136" cy="230" r="2.6" fill="#AA9BEF" fill-opacity="1.00"/><circle cx="150" cy="230" r="2.6" fill="#AA9BEF" fill-opacity="1.00"/><circle cx="157" cy="230" r="2.6" fill="#AA9BEF" fill-opacity="1.00"/><circle cx="164" cy="230" r="2.6" fill="#AA9BEF" fill-opacity="0.91"/><circle cx="171" cy="230" r="1.9" fill="#AA9BEF" fill-opacity="0.77"/><circle cx="262" cy="230" r="2.6" fill="#AA9BEF" fill-opacity="1.00"/><circle cx="283" cy="230" r="2.6" fill="#AA9BEF" fill-opacity="1.00"/><circle cx="122" cy="237" r="2.6" fill="#AA9BEF" fill-opacity="0.95"/><circle cx="129" cy="237" r="2.6" fill="#AA9BEF" fill-opacity="1.00"/><circle cx="143" cy="237" r="2.6" fill="#AA9BEF" fill-opacity="1.00"/><circle cx="192" cy="237" r="2.6" fill="#AA9BEF" fill-opacity="0.97"/><circle cx="276" cy="237" r="2.6" fill="#AA9BEF" fill-opacity="1.00"/><circle cx="297" cy="237" r="2.6" fill="#AA9BEF" fill-opacity="1.00"/><circle cx="339" cy="237" r="2.6" fill="#AA9BEF" fill-opacity="1.00"/><circle cx="143" cy="244" r="2.6" fill="#AA9BEF" fill-opacity="1.00"/><circle cx="150" cy="244" r="2.6" fill="#AA9BEF" fill-opacity="1.00"/><circle cx="164" cy="244" r="2.6" fill="#AA9BEF" fill-opacity="1.00"/><circle cx="185" cy="244" r="2.6" fill="#AA9BEF" fill-opacity="1.00"/><circle cx="192" cy="244" r="2.6" fill="#AA9BEF" fill-opacity="1.00"/><circle cx="199" cy="244" r="2.6" fill="#AA9BEF" fill-opacity="1.00"/><circle cx="290" cy="244" r="2.6" fill="#AA9BEF" fill-opacity="1.00"/><circle cx="346" cy="244" r="2.6" fill="#AA9BEF" fill-opacity="0.98"/><circle cx="150" cy="251" r="2.6" fill="#AA9BEF" fill-opacity="1.00"/><circle cx="171" cy="251" r="2.6" fill="#AA9BEF" fill-opacity="1.00"/><circle cx="199" cy="251" r="2.6" fill="#AA9BEF" fill-opacity="1.00"/><circle cx="213" cy="251" r="2.6" fill="#AA9BEF" fill-opacity="1.00"/><circle cx="276" cy="251" r="2.6" fill="#AA9BEF" fill-opacity="1.00"/><circle cx="290" cy="251" r="2.6" fill="#AA9BEF" fill-opacity="1.00"/><circle cx="297" cy="251" r="2.6" fill="#AA9BEF" fill-opacity="1.00"/><circle cx="150" cy="258" r="1.9" fill="#AA9BEF" fill-opacity="0.77"/><circle cx="171" cy="258" r="2.6" fill="#AA9BEF" fill-opacity="1.00"/><circle cx="185" cy="258" r="2.6" fill="#AA9BEF" fill-opacity="1.00"/><circle cx="199" cy="258" r="2.6" fill="#AA9BEF" fill-opacity="1.00"/><circle cx="178" cy="265" r="1.9" fill="#AA9BEF" fill-opacity="0.76"/><circle cx="206" cy="265" r="2.6" fill="#AA9BEF" fill-opacity="1.00"/><circle cx="206" cy="272" r="2.6" fill="#AA9BEF" fill-opacity="1.00"/><circle cx="199" cy="279" r="2.6" fill="#AA9BEF" fill-opacity="1.00"/><circle cx="213" cy="279" r="2.6" fill="#AA9BEF" fill-opacity="1.00"/><circle cx="192" cy="286" r="2.6" fill="#AA9BEF" fill-opacity="0.98"/><circle cx="129" cy="293" r="2.6" fill="#AA9BEF" fill-opacity="1.00"/><circle cx="178" cy="293" r="1.9" fill="#AA9BEF" fill-opacity="0.75"/><circle cx="185" cy="293" r="2.6" fill="#AA9BEF" fill-opacity="0.97"/><circle cx="206" cy="293" r="2.6" fill="#AA9BEF" fill-opacity="1.00"/><circle cx="122" cy="300" r="2.6" fill="#AA9BEF" fill-opacity="1.00"/><circle cx="157" cy="300" r="2.6" fill="#AA9BEF" fill-opacity="1.00"/><circle cx="129" cy="314" r="1.9" fill="#AA9BEF" fill-opacity="0.74"/><circle cx="164" cy="314" r="2.6" fill="#AA9BEF" fill-opacity="1.00"/></g><g class="sweep" style="animation-delay:0.97s"><circle cx="213" cy="188" r="2.6" fill="#AA9BEF" fill-opacity="1.00"/><circle cx="269" cy="188" r="2.6" fill="#AA9BEF" fill-opacity="1.00"/><circle cx="311" cy="188" r="2.6" fill="#AA9BEF" fill-opacity="1.00"/><circle cx="318" cy="188" r="2.6" fill="#AA9BEF" fill-opacity="1.00"/><circle cx="332" cy="188" r="2.6" fill="#AA9BEF" fill-opacity="1.00"/><circle cx="290" cy="195" r="2.6" fill="#AA9BEF" fill-opacity="1.00"/><circle cx="297" cy="195" r="2.6" fill="#AA9BEF" fill-opacity="1.00"/><circle cx="304" cy="195" r="2.6" fill="#AA9BEF" fill-opacity="1.00"/><circle cx="325" cy="195" r="2.6" fill="#AA9BEF" fill-opacity="1.00"/><circle cx="339" cy="195" r="2.6" fill="#AA9BEF" fill-opacity="1.00"/><circle cx="346" cy="195" r="2.6" fill="#AA9BEF" fill-opacity="1.00"/><circle cx="360" cy="195" r="2.6" fill="#AA9BEF" fill-opacity="0.83"/><circle cx="269" cy="202" r="2.6" fill="#AA9BEF" fill-opacity="1.00"/><circle cx="276" cy="202" r="2.6" fill="#AA9BEF" fill-opacity="1.00"/><circle cx="311" cy="202" r="1.9" fill="#AA9BEF" fill-opacity="0.73"/><circle cx="318" cy="202" r="1.9" fill="#AA9BEF" fill-opacity="0.78"/><circle cx="325" cy="202" r="2.6" fill="#AA9BEF" fill-opacity="0.99"/><circle cx="339" cy="202" r="2.6" fill="#AA9BEF" fill-opacity="1.00"/><circle cx="346" cy="202" r="2.6" fill="#AA9BEF" fill-opacity="1.00"/><circle cx="353" cy="202" r="2.6" fill="#AA9BEF" fill-opacity="1.00"/><circle cx="360" cy="202" r="2.6" fill="#AA9BEF" fill-opacity="1.00"/><circle cx="269" cy="209" r="2.6" fill="#AA9BEF" fill-opacity="1.00"/><circle cx="290" cy="209" r="2.6" fill="#AA9BEF" fill-opacity="1.00"/><circle cx="332" cy="209" r="2.6" fill="#AA9BEF" fill-opacity="1.00"/><circle cx="339" cy="209" r="2.6" fill="#AA9BEF" fill-opacity="1.00"/><circle cx="360" cy="216" r="2.6" fill="#AA9BEF" fill-opacity="1.00"/><circle cx="262" cy="223" r="2.6" fill="#AA9BEF" fill-opacity="1.00"/><circle cx="332" cy="223" r="2.6" fill="#AA9BEF" fill-opacity="1.00"/><circle cx="339" cy="223" r="2.6" fill="#AA9BEF" fill-opacity="1.00"/><circle cx="353" cy="223" r="2.6" fill="#AA9BEF" fill-opacity="1.00"/><circle cx="269" cy="230" r="2.6" fill="#AA9BEF" fill-opacity="1.00"/><circle cx="276" cy="230" r="2.6" fill="#AA9BEF" fill-opacity="1.00"/><circle cx="290" cy="230" r="2.6" fill="#AA9BEF" fill-opacity="1.00"/><circle cx="318" cy="230" r="1.9" fill="#AA9BEF" fill-opacity="0.69"/><circle cx="332" cy="230" r="2.6" fill="#AA9BEF" fill-opacity="1.00"/><circle cx="353" cy="230" r="2.6" fill="#AA9BEF" fill-opacity="1.00"/><circle cx="360" cy="230" r="2.6" fill="#AA9BEF" fill-opacity="0.90"/><circle cx="171" cy="237" r="2.6" fill="#AA9BEF" fill-opacity="1.00"/><circle cx="262" cy="237" r="2.6" fill="#AA9BEF" fill-opacity="1.00"/><circle cx="283" cy="237" r="2.6" fill="#AA9BEF" fill-opacity="1.00"/><circle cx="290" cy="237" r="2.6" fill="#AA9BEF" fill-opacity="1.00"/><circle cx="318" cy="237" r="2.6" fill="#AA9BEF" fill-opacity="1.00"/><circle cx="325" cy="237" r="2.6" fill="#AA9BEF" fill-opacity="1.00"/><circle cx="136" cy="244" r="2.6" fill="#AA9BEF" fill-opacity="1.00"/><circle cx="269" cy="244" r="2.6" fill="#AA9BEF" fill-opacity="1.00"/><circle cx="297" cy="244" r="2.6" fill="#AA9BEF" fill-opacity="1.00"/><circle cx="311" cy="244" r="2.6" fill="#AA9BEF" fill-opacity="1.00"/><circle cx="318" cy="244" r="2.6" fill="#AA9BEF" fill-opacity="1.00"/><circle cx="332" cy="244" r="2.6" fill="#AA9BEF" fill-opacity="1.00"/><circle cx="339" cy="244" r="2.6" fill="#AA9BEF" fill-opacity="1.00"/><circle cx="157" cy="251" r="2.6" fill="#AA9BEF" fill-opacity="1.00"/><circle cx="164" cy="251" r="2.6" fill="#AA9BEF" fill-opacity="1.00"/><circle cx="178" cy="251" r="2.6" fill="#AA9BEF" fill-opacity="1.00"/><circle cx="185" cy="251" r="2.6" fill="#AA9BEF" fill-opacity="1.00"/><circle cx="192" cy="251" r="2.6" fill="#AA9BEF" fill-opacity="1.00"/><circle cx="206" cy="251" r="2.6" fill="#AA9BEF" fill-opacity="1.00"/><circle cx="220" cy="251" r="1.9" fill="#AA9BEF" fill-opacity="0.70"/><circle cx="304" cy="251" r="2.6" fill="#AA9BEF" fill-opacity="1.00"/><circle cx="311" cy="251" r="2.6" fill="#AA9BEF" fill-opacity="1.00"/><circle cx="325" cy="251" r="2.6" fill="#AA9BEF" fill-opacity="1.00"/><circle cx="346" cy="251" r="2.6" fill="#AA9BEF" fill-opacity="1.00"/><circle cx="353" cy="251" r="2.6" fill="#AA9BEF" fill-opacity="1.00"/><circle cx="178" cy="258" r="2.6" fill="#AA9BEF" fill-opacity="1.00"/><circle cx="192" cy="258" r="2.6" fill="#AA9BEF" fill-opacity="1.00"/><circle cx="206" cy="258" r="2.6" fill="#AA9BEF" fill-opacity="1.00"/><circle cx="262" cy="258" r="2.6" fill="#AA9BEF" fill-opacity="1.00"/><circle cx="269" cy="258" r="2.6" fill="#AA9BEF" fill-opacity="1.00"/><circle cx="325" cy="258" r="1.9" fill="#AA9BEF" fill-opacity="0.72"/><circle cx="346" cy="258" r="2.6" fill="#AA9BEF" fill-opacity="1.00"/><circle cx="185" cy="265" r="2.6" fill="#AA9BEF" fill-opacity="0.98"/><circle cx="199" cy="265" r="2.6" fill="#AA9BEF" fill-opacity="1.00"/><circle cx="220" cy="265" r="2.6" fill="#AA9BEF" fill-opacity="1.00"/><circle cx="269" cy="265" r="2.6" fill="#AA9BEF" fill-opacity="1.00"/><circle cx="276" cy="265" r="2.6" fill="#AA9BEF" fill-opacity="1.00"/><circle cx="339" cy="265" r="2.6" fill="#AA9BEF" fill-opacity="1.00"/><circle cx="367" cy="265" r="2.6" fill="#AA9BEF" fill-opacity="0.98"/><circle cx="192" cy="272" r="2.6" fill="#AA9BEF" fill-opacity="0.98"/><circle cx="220" cy="272" r="2.6" fill="#AA9BEF" fill-opacity="1.00"/><circle cx="262" cy="272" r="2.6" fill="#AA9BEF" fill-opacity="1.00"/><circle cx="339" cy="272" r="2.6" fill="#AA9BEF" fill-opacity="1.00"/><circle cx="192" cy="279" r="2.6" fill="#AA9BEF" fill-opacity="0.87"/><circle cx="276" cy="279" r="2.6" fill="#AA9BEF" fill-opacity="1.00"/><circle cx="353" cy="279" r="2.6" fill="#AA9BEF" fill-opacity="1.00"/><circle cx="122" cy="286" r="2.6" fill="#AA9BEF" fill-opacity="0.99"/><circle cx="199" cy="286" r="2.6" fill="#AA9BEF" fill-opacity="1.00"/><circle cx="262" cy="286" r="2.6" fill="#AA9BEF" fill-opacity="1.00"/><circle cx="143" cy="293" r="2.6" fill="#AA9BEF" fill-opacity="0.96"/><circle cx="150" cy="293" r="2.6" fill="#AA9BEF" fill-opacity="0.81"/><circle cx="192" cy="293" r="2.6" fill="#AA9BEF" fill-opacity="1.00"/><circle cx="220" cy="293" r="2.6" fill="#AA9BEF" fill-opacity="0.97"/><circle cx="262" cy="293" r="2.6" fill="#AA9BEF" fill-opacity="1.00"/><circle cx="276" cy="293" r="2.6" fill="#AA9BEF" fill-opacity="1.00"/><circle cx="129" cy="300" r="2.6" fill="#AA9BEF" fill-opacity="1.00"/><circle cx="136" cy="300" r="2.6" fill="#AA9BEF" fill-opacity="1.00"/><circle cx="164" cy="300" r="2.6" fill="#AA9BEF" fill-opacity="1.00"/><circle cx="171" cy="300" r="2.6" fill="#AA9BEF" fill-opacity="1.00"/><circle cx="178" cy="300" r="2.6" fill="#AA9BEF" fill-opacity="1.00"/><circle cx="283" cy="300" r="2.6" fill="#AA9BEF" fill-opacity="1.00"/><circle cx="129" cy="307" r="2.6" fill="#AA9BEF" fill-opacity="1.00"/><circle cx="150" cy="307" r="2.6" fill="#AA9BEF" fill-opacity="1.00"/><circle cx="185" cy="307" r="2.6" fill="#AA9BEF" fill-opacity="1.00"/><circle cx="136" cy="314" r="2.6" fill="#AA9BEF" fill-opacity="0.90"/><circle cx="143" cy="314" r="2.6" fill="#AA9BEF" fill-opacity="1.00"/><circle cx="178" cy="314" r="2.6" fill="#AA9BEF" fill-opacity="1.00"/></g><g class="sweep" style="animation-delay:1.09s"><circle cx="311" cy="195" r="2.6" fill="#AA9BEF" fill-opacity="1.00"/><circle cx="332" cy="195" r="2.6" fill="#AA9BEF" fill-opacity="1.00"/><circle cx="346" cy="209" r="2.6" fill="#AA9BEF" fill-opacity="1.00"/><circle cx="283" cy="216" r="2.6" fill="#AA9BEF" fill-opacity="1.00"/><circle cx="339" cy="216" r="2.6" fill="#AA9BEF" fill-opacity="1.00"/><circle cx="353" cy="216" r="2.6" fill="#AA9BEF" fill-opacity="1.00"/><circle cx="283" cy="223" r="2.6" fill="#AA9BEF" fill-opacity="1.00"/><circle cx="346" cy="223" r="2.6" fill="#AA9BEF" fill-opacity="1.00"/><circle cx="325" cy="230" r="2.6" fill="#AA9BEF" fill-opacity="0.94"/><circle cx="339" cy="230" r="2.6" fill="#AA9BEF" fill-opacity="1.00"/><circle cx="346" cy="230" r="2.6" fill="#AA9BEF" fill-opacity="1.00"/><circle cx="269" cy="237" r="2.6" fill="#AA9BEF" fill-opacity="1.00"/><circle cx="304" cy="237" r="2.6" fill="#AA9BEF" fill-opacity="1.00"/><circle cx="311" cy="237" r="2.6" fill="#AA9BEF" fill-opacity="1.00"/><circle cx="332" cy="237" r="2.6" fill="#AA9BEF" fill-opacity="1.00"/><circle cx="346" cy="237" r="2.6" fill="#AA9BEF" fill-opacity="1.00"/><circle cx="206" cy="244" r="2.6" fill="#AA9BEF" fill-opacity="1.00"/><circle cx="262" cy="244" r="2.6" fill="#AA9BEF" fill-opacity="1.00"/><circle cx="276" cy="244" r="2.6" fill="#AA9BEF" fill-opacity="1.00"/><circle cx="283" cy="244" r="2.6" fill="#AA9BEF" fill-opacity="1.00"/><circle cx="304" cy="244" r="2.6" fill="#AA9BEF" fill-opacity="1.00"/><circle cx="325" cy="244" r="2.6" fill="#AA9BEF" fill-opacity="1.00"/><circle cx="262" cy="251" r="2.6" fill="#AA9BEF" fill-opacity="1.00"/><circle cx="269" cy="251" r="2.6" fill="#AA9BEF" fill-opacity="1.00"/><circle cx="283" cy="251" r="2.6" fill="#AA9BEF" fill-opacity="1.00"/><circle cx="339" cy="251" r="2.6" fill="#AA9BEF" fill-opacity="1.00"/><circle cx="360" cy="251" r="2.6" fill="#AA9BEF" fill-opacity="0.90"/><circle cx="213" cy="258" r="2.6" fill="#AA9BEF" fill-opacity="1.00"/><circle cx="220" cy="258" r="2.6" fill="#AA9BEF" fill-opacity="0.99"/><circle cx="339" cy="258" r="2.6" fill="#AA9BEF" fill-opacity="1.00"/><circle cx="353" cy="258" r="2.6" fill="#AA9BEF" fill-opacity="1.00"/><circle cx="192" cy="265" r="2.6" fill="#AA9BEF" fill-opacity="1.00"/><circle cx="213" cy="265" r="2.6" fill="#AA9BEF" fill-opacity="1.00"/><circle cx="262" cy="265" r="2.6" fill="#AA9BEF" fill-opacity="1.00"/><circle cx="290" cy="265" r="2.6" fill="#AA9BEF" fill-opacity="1.00"/><circle cx="346" cy="265" r="2.6" fill="#AA9BEF" fill-opacity="1.00"/><circle cx="360" cy="265" r="2.6" fill="#AA9BEF" fill-opacity="1.00"/><circle cx="199" cy="272" r="2.6" fill="#AA9BEF" fill-opacity="1.00"/><circle cx="276" cy="272" r="2.6" fill="#AA9BEF" fill-opacity="1.00"/><circle cx="283" cy="272" r="2.6" fill="#AA9BEF" fill-opacity="1.00"/><circle cx="353" cy="272" r="2.6" fill="#AA9BEF" fill-opacity="1.00"/><circle cx="206" cy="279" r="2.6" fill="#AA9BEF" fill-opacity="1.00"/><circle cx="220" cy="279" r="2.6" fill="#AA9BEF" fill-opacity="1.00"/><circle cx="262" cy="279" r="2.6" fill="#AA9BEF" fill-opacity="1.00"/><circle cx="269" cy="279" r="2.6" fill="#AA9BEF" fill-opacity="1.00"/><circle cx="213" cy="286" r="2.6" fill="#AA9BEF" fill-opacity="1.00"/><circle cx="220" cy="286" r="2.6" fill="#AA9BEF" fill-opacity="1.00"/><circle cx="276" cy="286" r="2.6" fill="#AA9BEF" fill-opacity="1.00"/><circle cx="290" cy="286" r="2.6" fill="#AA9BEF" fill-opacity="1.00"/><circle cx="339" cy="286" r="2.6" fill="#AA9BEF" fill-opacity="1.00"/><circle cx="346" cy="286" r="2.6" fill="#AA9BEF" fill-opacity="1.00"/><circle cx="367" cy="286" r="2.6" fill="#AA9BEF" fill-opacity="1.00"/><circle cx="122" cy="293" r="2.6" fill="#AA9BEF" fill-opacity="1.00"/><circle cx="136" cy="293" r="2.6" fill="#AA9BEF" fill-opacity="1.00"/><circle cx="157" cy="293" r="1.9" fill="#AA9BEF" fill-opacity="0.70"/><circle cx="199" cy="293" r="2.6" fill="#AA9BEF" fill-opacity="1.00"/><circle cx="213" cy="293" r="2.6" fill="#AA9BEF" fill-opacity="1.00"/><circle cx="290" cy="293" r="2.6" fill="#AA9BEF" fill-opacity="1.00"/><circle cx="325" cy="293" r="2.6" fill="#AA9BEF" fill-opacity="0.97"/><circle cx="143" cy="300" r="2.6" fill="#AA9BEF" fill-opacity="1.00"/><circle cx="150" cy="300" r="2.6" fill="#AA9BEF" fill-opacity="1.00"/><circle cx="185" cy="300" r="2.6" fill="#AA9BEF" fill-opacity="1.00"/><circle cx="192" cy="300" r="2.6" fill="#AA9BEF" fill-opacity="1.00"/><circle cx="199" cy="300" r="2.6" fill="#AA9BEF" fill-opacity="1.00"/><circle cx="206" cy="300" r="2.6" fill="#AA9BEF" fill-opacity="1.00"/><circle cx="213" cy="300" r="2.6" fill="#AA9BEF" fill-opacity="1.00"/><circle cx="269" cy="300" r="2.6" fill="#AA9BEF" fill-opacity="1.00"/><circle cx="297" cy="300" r="2.6" fill="#AA9BEF" fill-opacity="1.00"/><circle cx="304" cy="300" r="2.6" fill="#AA9BEF" fill-opacity="1.00"/><circle cx="311" cy="300" r="2.6" fill="#AA9BEF" fill-opacity="1.00"/><circle cx="122" cy="307" r="2.6" fill="#AA9BEF" fill-opacity="1.00"/><circle cx="136" cy="307" r="2.6" fill="#AA9BEF" fill-opacity="1.00"/><circle cx="143" cy="307" r="2.6" fill="#AA9BEF" fill-opacity="1.00"/><circle cx="157" cy="307" r="2.6" fill="#AA9BEF" fill-opacity="1.00"/><circle cx="164" cy="307" r="2.6" fill="#AA9BEF" fill-opacity="1.00"/><circle cx="171" cy="307" r="2.6" fill="#AA9BEF" fill-opacity="1.00"/><circle cx="199" cy="307" r="2.6" fill="#AA9BEF" fill-opacity="1.00"/><circle cx="206" cy="307" r="2.6" fill="#AA9BEF" fill-opacity="1.00"/><circle cx="262" cy="307" r="2.6" fill="#AA9BEF" fill-opacity="1.00"/><circle cx="290" cy="307" r="2.6" fill="#AA9BEF" fill-opacity="1.00"/><circle cx="150" cy="314" r="2.6" fill="#AA9BEF" fill-opacity="1.00"/><circle cx="157" cy="314" r="2.6" fill="#AA9BEF" fill-opacity="1.00"/><circle cx="192" cy="314" r="2.6" fill="#AA9BEF" fill-opacity="1.00"/><circle cx="269" cy="314" r="2.6" fill="#AA9BEF" fill-opacity="1.00"/><circle cx="304" cy="314" r="2.6" fill="#AA9BEF" fill-opacity="1.00"/><circle cx="318" cy="314" r="2.6" fill="#AA9BEF" fill-opacity="1.00"/><circle cx="339" cy="314" r="2.6" fill="#AA9BEF" fill-opacity="0.80"/></g><g class="sweep" style="animation-delay:1.21s"><circle cx="360" cy="223" r="2.6" fill="#AA9BEF" fill-opacity="1.00"/><circle cx="353" cy="237" r="2.6" fill="#AA9BEF" fill-opacity="0.93"/><circle cx="353" cy="244" r="1.9" fill="#AA9BEF" fill-opacity="0.72"/><circle cx="318" cy="251" r="2.6" fill="#AA9BEF" fill-opacity="1.00"/><circle cx="332" cy="251" r="2.6" fill="#AA9BEF" fill-opacity="1.00"/><circle cx="276" cy="258" r="2.6" fill="#AA9BEF" fill-opacity="1.00"/><circle cx="283" cy="258" r="2.6" fill="#AA9BEF" fill-opacity="1.00"/><circle cx="290" cy="258" r="2.6" fill="#AA9BEF" fill-opacity="1.00"/><circle cx="332" cy="258" r="2.6" fill="#AA9BEF" fill-opacity="0.99"/><circle cx="367" cy="258" r="1.9" fill="#AA9BEF" fill-opacity="0.75"/><circle cx="283" cy="265" r="2.6" fill="#AA9BEF" fill-opacity="1.00"/><circle cx="213" cy="272" r="2.6" fill="#AA9BEF" fill-opacity="1.00"/><circle cx="269" cy="272" r="2.6" fill="#AA9BEF" fill-opacity="1.00"/><circle cx="290" cy="272" r="2.6" fill="#AA9BEF" fill-opacity="1.00"/><circle cx="367" cy="272" r="2.6" fill="#AA9BEF" fill-opacity="1.00"/><circle cx="283" cy="279" r="2.6" fill="#AA9BEF" fill-opacity="1.00"/><circle cx="290" cy="279" r="2.6" fill="#AA9BEF" fill-opacity="1.00"/><circle cx="339" cy="279" r="2.6" fill="#AA9BEF" fill-opacity="1.00"/><circle cx="360" cy="279" r="2.6" fill="#AA9BEF" fill-opacity="1.00"/><circle cx="367" cy="279" r="2.6" fill="#AA9BEF" fill-opacity="1.00"/><circle cx="206" cy="286" r="2.6" fill="#AA9BEF" fill-opacity="1.00"/><circle cx="269" cy="286" r="2.6" fill="#AA9BEF" fill-opacity="1.00"/><circle cx="332" cy="286" r="2.6" fill="#AA9BEF" fill-opacity="0.82"/><circle cx="353" cy="286" r="2.6" fill="#AA9BEF" fill-opacity="1.00"/><circle cx="269" cy="293" r="2.6" fill="#AA9BEF" fill-opacity="1.00"/><circle cx="283" cy="293" r="2.6" fill="#AA9BEF" fill-opacity="1.00"/><circle cx="297" cy="293" r="2.6" fill="#AA9BEF" fill-opacity="0.82"/><circle cx="304" cy="293" r="2.6" fill="#AA9BEF" fill-opacity="0.82"/><circle cx="311" cy="293" r="2.6" fill="#AA9BEF" fill-opacity="0.82"/><circle cx="318" cy="293" r="2.6" fill="#AA9BEF" fill-opacity="0.84"/><circle cx="353" cy="293" r="2.6" fill="#AA9BEF" fill-opacity="1.00"/><circle cx="360" cy="293" r="2.6" fill="#AA9BEF" fill-opacity="1.00"/><circle cx="276" cy="300" r="2.6" fill="#AA9BEF" fill-opacity="1.00"/><circle cx="318" cy="300" r="2.6" fill="#AA9BEF" fill-opacity="1.00"/><circle cx="325" cy="300" r="2.6" fill="#AA9BEF" fill-opacity="1.00"/><circle cx="339" cy="300" r="2.6" fill="#AA9BEF" fill-opacity="1.00"/><circle cx="346" cy="300" r="2.6" fill="#AA9BEF" fill-opacity="1.00"/><circle cx="360" cy="300" r="2.6" fill="#AA9BEF" fill-opacity="1.00"/><circle cx="178" cy="307" r="2.6" fill="#AA9BEF" fill-opacity="1.00"/><circle cx="192" cy="307" r="2.6" fill="#AA9BEF" fill-opacity="1.00"/><circle cx="213" cy="307" r="1.9" fill="#AA9BEF" fill-opacity="0.78"/><circle cx="297" cy="307" r="2.6" fill="#AA9BEF" fill-opacity="1.00"/><circle cx="304" cy="307" r="2.6" fill="#AA9BEF" fill-opacity="1.00"/><circle cx="318" cy="307" r="2.6" fill="#AA9BEF" fill-opacity="1.00"/><circle cx="325" cy="307" r="2.6" fill="#AA9BEF" fill-opacity="1.00"/><circle cx="332" cy="307" r="2.6" fill="#AA9BEF" fill-opacity="1.00"/><circle cx="346" cy="307" r="2.6" fill="#AA9BEF" fill-opacity="1.00"/><circle cx="353" cy="307" r="2.6" fill="#AA9BEF" fill-opacity="0.96"/><circle cx="171" cy="314" r="2.6" fill="#AA9BEF" fill-opacity="1.00"/><circle cx="185" cy="314" r="2.6" fill="#AA9BEF" fill-opacity="1.00"/><circle cx="199" cy="314" r="2.6" fill="#AA9BEF" fill-opacity="0.89"/><circle cx="276" cy="314" r="2.6" fill="#AA9BEF" fill-opacity="1.00"/><circle cx="283" cy="314" r="2.6" fill="#AA9BEF" fill-opacity="1.00"/><circle cx="332" cy="314" r="2.6" fill="#AA9BEF" fill-opacity="0.91"/><circle cx="192" cy="419" r="1.9" fill="#AA9BEF" fill-opacity="0.79"/></g><g class="sweep" style="animation-delay:1.33s"><circle cx="360" cy="258" r="2.6" fill="#AA9BEF" fill-opacity="1.00"/><circle cx="353" cy="265" r="2.6" fill="#AA9BEF" fill-opacity="1.00"/><circle cx="346" cy="272" r="2.6" fill="#AA9BEF" fill-opacity="1.00"/><circle cx="360" cy="272" r="2.6" fill="#AA9BEF" fill-opacity="1.00"/><circle cx="346" cy="279" r="2.6" fill="#AA9BEF" fill-opacity="1.00"/><circle cx="283" cy="286" r="2.6" fill="#AA9BEF" fill-opacity="1.00"/><circle cx="360" cy="286" r="2.6" fill="#AA9BEF" fill-opacity="1.00"/><circle cx="332" cy="293" r="2.6" fill="#AA9BEF" fill-opacity="1.00"/><circle cx="339" cy="293" r="2.6" fill="#AA9BEF" fill-opacity="1.00"/><circle cx="346" cy="293" r="2.6" fill="#AA9BEF" fill-opacity="1.00"/><circle cx="367" cy="293" r="2.6" fill="#AA9BEF" fill-opacity="0.86"/><circle cx="262" cy="300" r="2.6" fill="#AA9BEF" fill-opacity="1.00"/><circle cx="290" cy="300" r="2.6" fill="#AA9BEF" fill-opacity="1.00"/><circle cx="332" cy="300" r="2.6" fill="#AA9BEF" fill-opacity="1.00"/><circle cx="269" cy="307" r="2.6" fill="#AA9BEF" fill-opacity="1.00"/><circle cx="276" cy="307" r="2.6" fill="#AA9BEF" fill-opacity="1.00"/><circle cx="283" cy="307" r="2.6" fill="#AA9BEF" fill-opacity="1.00"/><circle cx="311" cy="307" r="2.6" fill="#AA9BEF" fill-opacity="1.00"/><circle cx="262" cy="314" r="2.6" fill="#AA9BEF" fill-opacity="1.00"/><circle cx="290" cy="314" r="2.6" fill="#AA9BEF" fill-opacity="1.00"/><circle cx="297" cy="314" r="2.6" fill="#AA9BEF" fill-opacity="1.00"/><circle cx="325" cy="314" r="2.6" fill="#AA9BEF" fill-opacity="0.97"/><circle cx="255" cy="398" r="1.9" fill="#AA9BEF" fill-opacity="0.75"/><circle cx="248" cy="405" r="1.9" fill="#AA9BEF" fill-opacity="0.73"/><circle cx="213" cy="412" r="2.6" fill="#AA9BEF" fill-opacity="0.83"/><circle cx="199" cy="419" r="2.6" fill="#AA9BEF" fill-opacity="0.89"/><circle cx="206" cy="419" r="2.6" fill="#AA9BEF" fill-opacity="0.89"/><circle cx="213" cy="419" r="2.6" fill="#AA9BEF" fill-opacity="0.85"/><circle cx="248" cy="426" r="2.6" fill="#AA9BEF" fill-opacity="0.88"/><circle cx="171" cy="433" r="2.6" fill="#AA9BEF" fill-opacity="0.89"/><circle cx="241" cy="433" r="2.6" fill="#AA9BEF" fill-opacity="0.85"/><circle cx="178" cy="440" r="2.6" fill="#AA9BEF" fill-opacity="0.89"/><circle cx="192" cy="440" r="1.9" fill="#AA9BEF" fill-opacity="0.79"/><circle cx="192" cy="447" r="2.6" fill="#AA9BEF" fill-opacity="0.86"/></g><g class="sweep" style="animation-delay:1.45s"><circle cx="353" cy="300" r="2.6" fill="#AA9BEF" fill-opacity="1.00"/><circle cx="339" cy="307" r="2.6" fill="#AA9BEF" fill-opacity="1.00"/><circle cx="311" cy="314" r="2.6" fill="#AA9BEF" fill-opacity="1.00"/><circle cx="255" cy="405" r="2.6" fill="#AA9BEF" fill-opacity="0.86"/><circle cx="248" cy="412" r="2.6" fill="#AA9BEF" fill-opacity="0.87"/><circle cx="269" cy="412" r="1.9" fill="#AA9BEF" fill-opacity="0.73"/><circle cx="276" cy="412" r="1.9" fill="#AA9BEF" fill-opacity="0.78"/><circle cx="248" cy="419" r="2.6" fill="#AA9BEF" fill-opacity="0.89"/><circle cx="178" cy="426" r="2.6" fill="#AA9BEF" fill-opacity="0.88"/><circle cx="185" cy="426" r="2.6" fill="#AA9BEF" fill-opacity="0.89"/><circle cx="297" cy="426" r="2.6" fill="#AA9BEF" fill-opacity="0.88"/><circle cx="318" cy="426" r="1.9" fill="#AA9BEF" fill-opacity="0.70"/><circle cx="311" cy="433" r="2.6" fill="#AA9BEF" fill-opacity="0.87"/><circle cx="311" cy="440" r="2.6" fill="#AA9BEF" fill-opacity="0.88"/><circle cx="283" cy="447" r="2.6" fill="#AA9BEF" fill-opacity="0.89"/><circle cx="206" cy="454" r="1.9" fill="#AA9BEF" fill-opacity="0.73"/><circle cx="234" cy="454" r="2.6" fill="#AA9BEF" fill-opacity="0.83"/><circle cx="241" cy="454" r="1.9" fill="#AA9BEF" fill-opacity="0.78"/><circle cx="234" cy="461" r="2.6" fill="#AA9BEF" fill-opacity="0.89"/></g><g class="sweep" style="animation-delay:1.57s"><circle cx="276" cy="419" r="2.6" fill="#AA9BEF" fill-opacity="0.88"/><circle cx="283" cy="419" r="2.6" fill="#AA9BEF" fill-opacity="0.89"/><circle cx="290" cy="419" r="2.6" fill="#AA9BEF" fill-opacity="0.88"/><circle cx="171" cy="426" r="1.9" fill="#AA9BEF" fill-opacity="0.75"/><circle cx="192" cy="426" r="2.6" fill="#AA9BEF" fill-opacity="0.86"/><circle cx="199" cy="426" r="1.9" fill="#AA9BEF" fill-opacity="0.70"/><circle cx="241" cy="426" r="1.9" fill="#AA9BEF" fill-opacity="0.71"/><circle cx="290" cy="426" r="1.9" fill="#AA9BEF" fill-opacity="0.75"/><circle cx="304" cy="426" r="2.6" fill="#AA9BEF" fill-opacity="0.89"/><circle cx="311" cy="426" r="2.6" fill="#AA9BEF" fill-opacity="0.86"/><circle cx="164" cy="433" r="1.9" fill="#AA9BEF" fill-opacity="0.80"/><circle cx="178" cy="433" r="2.6" fill="#AA9BEF" fill-opacity="0.81"/><circle cx="318" cy="433" r="2.6" fill="#AA9BEF" fill-opacity="0.89"/><circle cx="171" cy="440" r="2.6" fill="#AA9BEF" fill-opacity="0.82"/><circle cx="185" cy="440" r="2.6" fill="#AA9BEF" fill-opacity="0.89"/><circle cx="241" cy="440" r="2.6" fill="#AA9BEF" fill-opacity="0.89"/><circle cx="297" cy="440" r="2.6" fill="#AA9BEF" fill-opacity="0.84"/><circle cx="185" cy="447" r="1.9" fill="#AA9BEF" fill-opacity="0.69"/><circle cx="206" cy="447" r="2.6" fill="#AA9BEF" fill-opacity="0.89"/><circle cx="276" cy="447" r="2.6" fill="#AA9BEF" fill-opacity="0.83"/><circle cx="234" cy="468" r="2.6" fill="#AA9BEF" fill-opacity="0.82"/></g><g class="sweep" style="animation-delay:1.69s"><circle cx="255" cy="412" r="1.9" fill="#AA9BEF" fill-opacity="0.72"/><circle cx="297" cy="419" r="1.9" fill="#AA9BEF" fill-opacity="0.74"/><circle cx="248" cy="433" r="1.9" fill="#AA9BEF" fill-opacity="0.75"/><circle cx="304" cy="440" r="2.6" fill="#AA9BEF" fill-opacity="0.89"/><circle cx="199" cy="447" r="2.6" fill="#AA9BEF" fill-opacity="0.89"/><circle cx="213" cy="447" r="1.9" fill="#AA9BEF" fill-opacity="0.78"/><circle cx="241" cy="447" r="2.6" fill="#AA9BEF" fill-opacity="0.88"/><circle cx="290" cy="447" r="2.6" fill="#AA9BEF" fill-opacity="0.89"/><circle cx="297" cy="447" r="2.6" fill="#AA9BEF" fill-opacity="0.81"/><circle cx="213" cy="454" r="2.6" fill="#AA9BEF" fill-opacity="0.88"/><circle cx="269" cy="454" r="1.9" fill="#AA9BEF" fill-opacity="0.73"/></g><g class="sweep" style="animation-delay:1.81s"><circle cx="318" cy="440" r="1.9" fill="#AA9BEF" fill-opacity="0.77"/><circle cx="276" cy="454" r="2.6" fill="#AA9BEF" fill-opacity="0.84"/></g><circle cx="136" cy="195" r="3.4" fill="#22D3EE" opacity="0"><animate attributeName="opacity" values="0;0.9;0" dur="4.0s" begin="4.9s" repeatCount="indefinite"/></circle><circle cx="360" cy="209" r="3.4" fill="#22D3EE" opacity="0"><animate attributeName="opacity" values="0;0.9;0" dur="3.0s" begin="3.7s" repeatCount="indefinite"/></circle><circle cx="262" cy="223" r="3.4" fill="#22D3EE" opacity="0"><animate attributeName="opacity" values="0;0.9;0" dur="5.4s" begin="5.9s" repeatCount="indefinite"/></circle><circle cx="178" cy="237" r="3.4" fill="#22D3EE" opacity="0"><animate attributeName="opacity" values="0;0.9;0" dur="5.3s" begin="5.6s" repeatCount="indefinite"/></circle><circle cx="262" cy="237" r="3.4" fill="#22D3EE" opacity="0"><animate attributeName="opacity" values="0;0.9;0" dur="5.1s" begin="3.5s" repeatCount="indefinite"/></circle><circle cx="318" cy="314" r="3.4" fill="#22D3EE" opacity="0"><animate attributeName="opacity" values="0;0.9;0" dur="5.3s" begin="3.6s" repeatCount="indefinite"/></circle><circle cx="178" cy="426" r="3.4" fill="#22D3EE" opacity="0"><animate attributeName="opacity" values="0;0.9;0" dur="4.8s" begin="6.9s" repeatCount="indefinite"/></circle><circle cx="192" cy="440" r="2.7" fill="#22D3EE" opacity="0"><animate attributeName="opacity" values="0;0.9;0" dur="3.6s" begin="3.8s" repeatCount="indefinite"/></circle>
<text x="49" y="546" fill="#8291A8" class="mono" font-size="11.5">📍 Düsseldorf, Germany</text>

<rect x="473" y="88" width="672" height="472" rx="6" fill="#101B30" stroke="#25344C"/>
<text x="495" y="138" class="t mono" font-size="14"><tspan fill="#34D399">➜</tspan> <tspan fill="#22D3EE">~</tspan> <tspan fill="#DDE7F5">./seifeddine2003.sh --whoami</tspan></text><clipPath id="r0"><rect x="495" y="147" width="0" height="25"><animate attributeName="width" from="0" to="628" begin="0.90s" dur="0.42s" fill="freeze"/></rect></clipPath><text x="495" y="164" clip-path="url(#r0)" font-size="14.5" class="mono"><tspan fill="#AA9BEF">Subject</tspan><tspan fill="#25344C"> .......... </tspan><tspan fill="#DDE7F5">Seifeddine Ben Yaala</tspan></text><clipPath id="r1"><rect x="495" y="172" width="0" height="25"><animate attributeName="width" from="0" to="628" begin="1.06s" dur="0.42s" fill="freeze"/></rect></clipPath><text x="495" y="189" clip-path="url(#r1)" font-size="14.5" class="mono"><tspan fill="#AA9BEF">Role</tspan><tspan fill="#25344C"> ............. </tspan><tspan fill="#DDE7F5">B.Sc. Informatik · HHU Düsseldorf</tspan></text><clipPath id="r2"><rect x="495" y="197" width="0" height="25"><animate attributeName="width" from="0" to="628" begin="1.22s" dur="0.42s" fill="freeze"/></rect></clipPath><text x="495" y="214" clip-path="url(#r2)" font-size="14.5" class="mono"><tspan fill="#AA9BEF">Work</tspan><tspan fill="#25344C"> ............. </tspan><tspan fill="#DDE7F5">Werkstudent Data Migration · Stepstone</tspan></text><clipPath id="r3"><rect x="495" y="222" width="0" height="25"><animate attributeName="width" from="0" to="628" begin="1.38s" dur="0.42s" fill="freeze"/></rect></clipPath><text x="495" y="239" clip-path="url(#r3)" font-size="14.5" class="mono"><tspan fill="#AA9BEF">Base</tspan><tspan fill="#25344C"> ............. </tspan><tspan fill="#DDE7F5">Düsseldorf, Germany</tspan></text><clipPath id="r4"><rect x="495" y="247" width="0" height="25"><animate attributeName="width" from="0" to="628" begin="1.54s" dur="0.42s" fill="freeze"/></rect></clipPath><text x="495" y="264" clip-path="url(#r4)" font-size="14.5" class="mono"><tspan fill="#AA9BEF">Focus</tspan><tspan fill="#25344C"> ............ </tspan><tspan fill="#DDE7F5">Backend · Full-Stack · NLP</tspan></text><clipPath id="r5"><rect x="495" y="272" width="0" height="25"><animate attributeName="width" from="0" to="628" begin="1.70s" dur="0.42s" fill="freeze"/></rect></clipPath><text x="495" y="289" clip-path="url(#r5)" font-size="14.5" class="mono"><tspan fill="#22D3EE">Core.Lang</tspan><tspan fill="#25344C"> ........ </tspan><tspan fill="#DDE7F5">Java · Python · JavaScript · C</tspan></text><clipPath id="r6"><rect x="495" y="297" width="0" height="25"><animate attributeName="width" from="0" to="628" begin="1.86s" dur="0.42s" fill="freeze"/></rect></clipPath><text x="495" y="314" clip-path="url(#r6)" font-size="14.5" class="mono"><tspan fill="#22D3EE">Core.Backend</tspan><tspan fill="#25344C"> ..... </tspan><tspan fill="#DDE7F5">Spring Boot · Node.js · REST APIs</tspan></text><clipPath id="r7"><rect x="495" y="322" width="0" height="25"><animate attributeName="width" from="0" to="628" begin="2.02s" dur="0.42s" fill="freeze"/></rect></clipPath><text x="495" y="339" clip-path="url(#r7)" font-size="14.5" class="mono"><tspan fill="#22D3EE">Core.Frontend</tspan><tspan fill="#25344C"> .... </tspan><tspan fill="#DDE7F5">React · HTML · CSS</tspan></text><clipPath id="r8"><rect x="495" y="347" width="0" height="25"><animate attributeName="width" from="0" to="628" begin="2.18s" dur="0.42s" fill="freeze"/></rect></clipPath><text x="495" y="364" clip-path="url(#r8)" font-size="14.5" class="mono"><tspan fill="#22D3EE">Core.Data</tspan><tspan fill="#25344C"> ........ </tspan><tspan fill="#DDE7F5">MySQL · PostgreSQL · JPA/JDBC</tspan></text><clipPath id="r9"><rect x="495" y="372" width="0" height="25"><animate attributeName="width" from="0" to="628" begin="2.34s" dur="0.42s" fill="freeze"/></rect></clipPath><text x="495" y="389" clip-path="url(#r9)" font-size="14.5" class="mono"><tspan fill="#22D3EE">Core.ML</tspan><tspan fill="#25344C"> .......... </tspan><tspan fill="#DDE7F5">PyTorch · HF Transformers · sklearn</tspan></text><clipPath id="r10"><rect x="495" y="397" width="0" height="25"><animate attributeName="width" from="0" to="628" begin="2.50s" dur="0.42s" fill="freeze"/></rect></clipPath><text x="495" y="414" clip-path="url(#r10)" font-size="14.5" class="mono"><tspan fill="#AA9BEF">ToolChain</tspan><tspan fill="#25344C"> ........ </tspan><tspan fill="#DDE7F5">Git · Docker · Gradle · n8n</tspan></text><clipPath id="r11"><rect x="495" y="422" width="0" height="25"><animate attributeName="width" from="0" to="628" begin="2.66s" dur="0.42s" fill="freeze"/></rect></clipPath><text x="495" y="439" clip-path="url(#r11)" font-size="14.5" class="mono"><tspan fill="#AA9BEF">Speaks</tspan><tspan fill="#25344C"> ........... </tspan><tspan fill="#DDE7F5">Arabic · Deutsch · English · Français</tspan></text><clipPath id="r12"><rect x="495" y="447" width="0" height="25"><animate attributeName="width" from="0" to="628" begin="2.82s" dur="0.42s" fill="freeze"/></rect></clipPath><text x="495" y="464" clip-path="url(#r12)" font-size="14.5" class="mono"><tspan fill="#AA9BEF">Offline</tspan><tspan fill="#25344C"> .......... </tspan><tspan fill="#DDE7F5">Football · Boxing · Running · Music</tspan></text><clipPath id="r13"><rect x="495" y="472" width="0" height="25"><animate attributeName="width" from="0" to="628" begin="2.98s" dur="0.42s" fill="freeze"/></rect></clipPath><text x="495" y="489" clip-path="url(#r13)" font-size="14.5" class="mono"><tspan fill="#22D3EE">Grid.GitHub</tspan><tspan fill="#25344C"> ...... </tspan><tspan fill="#DDE7F5">seifeddine2003</tspan></text><g opacity="0"><animate attributeName="opacity" from="0" to="1" begin="3.64s" dur="0.3s" fill="freeze"/><text x="495" y="534" font-size="14" class="mono"><tspan fill="#34D399">●</tspan><tspan fill="#8291A8"> online</tspan><tspan fill="#25344C">  │  </tspan><tspan fill="#34D399">➜</tspan> <tspan fill="#22D3EE">~</tspan><tspan fill="#DDE7F5"> git commit -m &quot;keep shipping&quot;</tspan></text><rect x="884.4" y="521" width="9" height="16" fill="#AA9BEF"><animate attributeName="opacity" values="1;1;0;0" keyTimes="0;0.5;0.5;1" dur="1.1s" repeatCount="indefinite"/></rect></g>
</svg>
