<svg xmlns="http://www.w3.org/2000/svg" width="460" height="420" viewBox="0 0 460 420" role="img" aria-label="Skill Radar">
<style>
.grow{transform-origin:230.0px 226px;transform:scale(0);animation:g .9s cubic-bezier(.2,.8,.2,1) .2s forwards;}
@keyframes g{to{transform:scale(1)}}
@media (prefers-reduced-motion: reduce){.grow{animation:none;transform:none}}
</style>
<rect x=".5" y=".5" width="459" height="419" rx="12" fill="#FFFFFF" stroke="#D8DEE9"/>
<text x="20" y="32" fill="#6D5BD0" font-family="ui-monospace,SFMono-Regular,'JetBrains Mono',Menlo,Consolas,monospace" font-size="13" font-weight="600">Skill Radar</text>
<text x="440" y="32" text-anchor="end" fill="#65748B" font-family="ui-monospace,SFMono-Regular,'JetBrains Mono',Menlo,Consolas,monospace" font-size="11">self-rated · 0-100</text>
<polygon points="230.0,196.5 253.1,207.6 258.8,232.6 242.8,252.6 217.2,252.6 201.2,232.6 206.9,207.6" fill="none" stroke="#D8DEE9" stroke-width="1"/><polygon points="230.0,167.0 276.1,189.2 287.5,239.1 255.6,279.2 204.4,279.2 172.5,239.1 183.9,189.2" fill="none" stroke="#D8DEE9" stroke-width="1"/><polygon points="230.0,137.5 299.2,170.8 316.3,245.7 268.4,305.7 191.6,305.7 143.7,245.7 160.8,170.8" fill="none" stroke="#D8DEE9" stroke-width="1"/><polygon points="230.0,108.0 322.3,152.4 345.0,252.3 281.2,332.3 178.8,332.3 115.0,252.3 137.7,152.4" fill="#F3F5FA" stroke="#D8DEE9" stroke-width="1"/><line x1="230.0" y1="226" x2="230.0" y2="108.0" stroke="#D8DEE9"/><line x1="230.0" y1="226" x2="322.3" y2="152.4" stroke="#D8DEE9"/><line x1="230.0" y1="226" x2="345.0" y2="252.3" stroke="#D8DEE9"/><line x1="230.0" y1="226" x2="281.2" y2="332.3" stroke="#D8DEE9"/><line x1="230.0" y1="226" x2="178.8" y2="332.3" stroke="#D8DEE9"/><line x1="230.0" y1="226" x2="115.0" y2="252.3" stroke="#D8DEE9"/><line x1="230.0" y1="226" x2="137.7" y2="152.4" stroke="#D8DEE9"/><g class="grow"><polygon points="230.0,134.0 294.6,174.5 312.8,244.9 268.4,305.7 196.2,296.2 151.8,243.9 172.8,180.4" fill="#6D5BD0" fill-opacity=".22" stroke="#6D5BD0" stroke-width="2" stroke-linejoin="round"/><circle cx="230.0" cy="134.0" r="3.6" fill="#6D5BD0" stroke="#FFFFFF" stroke-width="1.5"/><circle cx="294.6" cy="174.5" r="3.6" fill="#6D5BD0" stroke="#FFFFFF" stroke-width="1.5"/><circle cx="312.8" cy="244.9" r="3.6" fill="#6D5BD0" stroke="#FFFFFF" stroke-width="1.5"/><circle cx="268.4" cy="305.7" r="3.6" fill="#6D5BD0" stroke="#FFFFFF" stroke-width="1.5"/><circle cx="196.2" cy="296.2" r="3.6" fill="#6D5BD0" stroke="#FFFFFF" stroke-width="1.5"/><circle cx="151.8" cy="243.9" r="3.6" fill="#6D5BD0" stroke="#FFFFFF" stroke-width="1.5"/><circle cx="172.8" cy="180.4" r="3.6" fill="#6D5BD0" stroke="#FFFFFF" stroke-width="1.5"/></g><text x="230.0" y="84.0" text-anchor="middle" fill="#1E293B" font-family="-apple-system,BlinkMacSystemFont,'Segoe UI',Helvetica,Arial,sans-serif" font-size="12.5"><tspan x="230.0" dy="0">Java / OOP</tspan></text><text x="339.5" y="142.7" text-anchor="start" fill="#1E293B" font-family="-apple-system,BlinkMacSystemFont,'Segoe UI',Helvetica,Arial,sans-serif" font-size="12.5"><tspan x="339.5" dy="0">Spring Boot</tspan></text><text x="366.5" y="261.2" text-anchor="start" fill="#1E293B" font-family="-apple-system,BlinkMacSystemFont,'Segoe UI',Helvetica,Arial,sans-serif" font-size="12.5"><tspan x="366.5" dy="0">SQL / MySQL</tspan></text><text x="290.7" y="362.1" text-anchor="start" fill="#1E293B" font-family="-apple-system,BlinkMacSystemFont,'Segoe UI',Helvetica,Arial,sans-serif" font-size="12.5"><tspan x="290.7" dy="0">Python</tspan></text><text x="169.3" y="362.1" text-anchor="end" fill="#1E293B" font-family="-apple-system,BlinkMacSystemFont,'Segoe UI',Helvetica,Arial,sans-serif" font-size="12.5"><tspan x="169.3" dy="0">Machine</tspan><tspan x="169.3" dy="15">Learning</tspan></text><text x="93.5" y="254.2" text-anchor="end" fill="#1E293B" font-family="-apple-system,BlinkMacSystemFont,'Segoe UI',Helvetica,Arial,sans-serif" font-size="12.5"><tspan x="93.5" dy="0">NLP /</tspan><tspan x="93.5" dy="15">Transformers</tspan></text><text x="120.5" y="135.7" text-anchor="end" fill="#1E293B" font-family="-apple-system,BlinkMacSystemFont,'Segoe UI',Helvetica,Arial,sans-serif" font-size="12.5"><tspan x="120.5" dy="0">Web</tspan><tspan x="120.5" dy="15">(HTML/CSS/JS)</tspan></text>
</svg>
